<?xml version="1.0" encoding="UTF-8"?>
<svg xmlns="http://www.w3.org/2000/svg" xmlns:xlink="http://www.w3.org/1999/xlink" width="94px" height="25px" viewBox="0 0 94 25" version="1.1">
<defs>
<linearGradient id="linear0" gradientUnits="userSpaceOnUse" x1="88.513603" y1="624.15918" x2="195.9864" y2="624.15918" gradientTransform="matrix(0.104044,0,0,0.104167,-9.208906,-43.752082)">
<stop offset="0" style="stop-color:rgb(21.960784%,16.470588%,82.745098%);stop-opacity:1;"/>
<stop offset="1" style="stop-color:rgb(0%,59.215686%,63.137255%);stop-opacity:1;"/>
</linearGradient>
<linearGradient id="linear1" gradientUnits="userSpaceOnUse" x1="88.525497" y1="485.1925" x2="195.995" y2="485.1925" gradientTransform="matrix(0.104044,0,0,0.104167,-9.208906,-43.752082)">
<stop offset="0" style="stop-color:rgb(21.960784%,16.470588%,82.745098%);stop-opacity:1;"/>
<stop offset="1" style="stop-color:rgb(0%,59.215686%,63.137255%);stop-opacity:1;"/>
</linearGradient>
<linearGradient id="linear2" gradientUnits="userSpaceOnUse" x1="88.525497" y1="545.72461" x2="195.995" y2="545.72461" gradientTransform="matrix(0.104044,0,0,0.104167,-9.208906,-43.752082)">
<stop offset="0" style="stop-color:rgb(21.960784%,16.470588%,82.745098%);stop-opacity:1;"/>
<stop offset="1" style="stop-color:rgb(0%,59.215686%,63.137255%);stop-opacity:1;"/>
</linearGradient>
<linearGradient id="linear3" gradientUnits="userSpaceOnUse" x1="124.3486" y1="437.92819" x2="160.1718" y2="437.92819" gradientTransform="matrix(0.104044,0,0,0.104167,-9.208906,-43.752082)">
<stop offset="0" style="stop-color:rgb(21.960784%,16.470588%,82.745098%);stop-opacity:1;"/>
<stop offset="1" style="stop-color:rgb(0%,59.215686%,63.137255%);stop-opacity:1;"/>
</linearGradient>
<linearGradient id="linear4" gradientUnits="userSpaceOnUse" x1="845.89783" y1="549.98633" x2="881.93372" y2="549.98633" gradientTransform="matrix(0.104044,0,0,0.104167,-9.208906,-43.752082)">
<stop offset="0" style="stop-color:rgb(21.960784%,16.470588%,82.745098%);stop-opacity:1;"/>
<stop offset="1" style="stop-color:rgb(0%,59.215686%,63.137255%);stop-opacity:1;"/>
</linearGradient>
<linearGradient id="linear5" gradientUnits="userSpaceOnUse" x1="825.73242" y1="554.69318" x2="861.76831" y2="554.69318" gradientTransform="matrix(0.104044,0,0,0.104167,-9.208906,-43.752082)">
<stop offset="0" style="stop-color:rgb(21.960784%,16.470588%,82.745098%);stop-opacity:1;"/>
<stop offset="1" style="stop-color:rgb(0%,59.215686%,63.137255%);stop-opacity:1;"/>
</linearGradient>
</defs>
<g id="surface1">
<path style=" stroke:none;fill-rule:nonzero;fill:url(#linear0);" d="M 7.453125 21.265625 L 7.453125 24.996094 L 3.726562 24.996094 L 3.726562 21.265625 L 0 21.265625 L 0 17.53125 L 11.183594 17.53125 L 11.183594 21.265625 Z M 7.453125 21.265625 "/>
<path style=" stroke:none;fill-rule:nonzero;fill:url(#linear1);" d="M 11.183594 8.652344 L 0.00390625 8.652344 L 0.00390625 4.921875 L 11.183594 4.921875 Z M 11.183594 8.652344 "/>
<path style=" stroke:none;fill-rule:nonzero;fill:url(#linear2);" d="M 5.59375 9.847656 L 11.183594 12.609375 L 11.183594 16.339844 L 5.59375 13.578125 L 0.00390625 16.339844 L 0.00390625 12.609375 Z M 5.59375 9.847656 "/>
<path style=" stroke:none;fill-rule:nonzero;fill:url(#linear3);" d="M 7.457031 1.867188 C 7.457031 2.894531 6.621094 3.730469 5.59375 3.730469 C 4.5625 3.730469 3.730469 2.894531 3.730469 1.867188 C 3.730469 0.835938 4.5625 0 5.59375 0 C 6.621094 0 7.457031 0.835938 7.457031 1.867188 Z M 7.457031 1.867188 "/>
<path style=" stroke:none;fill-rule:nonzero;fill:rgb(0%,0%,0%);fill-opacity:1;" d="M 18.449219 17.335938 C 17.285156 16.132812 16.699219 14.523438 16.699219 12.496094 C 16.699219 10.449219 17.269531 8.832031 18.414062 7.640625 C 19.554688 6.449219 21.09375 5.855469 23.03125 5.855469 C 24.601562 5.855469 25.933594 6.273438 27.023438 7.105469 C 28.144531 7.949219 28.816406 9.148438 29.039062 10.695312 L 25.992188 10.695312 C 25.800781 9.980469 25.445312 9.429688 24.929688 9.042969 C 24.414062 8.65625 23.78125 8.464844 23.03125 8.464844 C 22.007812 8.464844 21.222656 8.816406 20.667969 9.515625 C 20.117188 10.21875 19.839844 11.210938 19.839844 12.496094 C 19.839844 13.785156 20.117188 14.777344 20.667969 15.480469 C 21.222656 16.179688 22.007812 16.53125 23.03125 16.53125 C 23.816406 16.53125 24.480469 16.304688 25.027344 15.855469 C 25.574219 15.402344 25.921875 14.769531 26.0625 13.960938 L 29.074219 13.960938 C 28.886719 15.605469 28.238281 16.878906 27.132812 17.78125 C 26.015625 18.6875 24.648438 19.136719 23.03125 19.136719 C 21.140625 19.140625 19.613281 18.539062 18.449219 17.335938 Z M 18.449219 17.335938 "/>
<path style=" stroke:none;fill-rule:nonzero;fill:rgb(0%,0%,0%);fill-opacity:1;" d="M 36.351562 18.851562 C 36.210938 18.578125 36.132812 18.234375 36.121094 17.816406 C 35.5 18.652344 34.519531 19.066406 33.175781 19.066406 C 32.167969 19.066406 31.355469 18.816406 30.742188 18.316406 C 30.132812 17.816406 29.824219 17.128906 29.824219 16.246094 C 29.824219 14.535156 31.027344 13.574219 33.425781 13.371094 L 34.871094 13.246094 C 35.667969 13.164062 36.066406 12.863281 36.066406 12.335938 C 36.066406 11.71875 35.597656 11.410156 34.65625 11.410156 C 34.085938 11.410156 33.683594 11.496094 33.453125 11.667969 C 33.222656 11.839844 33.082031 12.160156 33.035156 12.625 L 30.269531 12.625 C 30.4375 10.492188 31.90625 9.429688 34.675781 9.429688 C 37.410156 9.429688 38.777344 10.375 38.777344 12.265625 L 38.777344 17.160156 C 38.777344 17.933594 38.902344 18.496094 39.152344 18.855469 L 36.351562 18.855469 Z M 35.515625 16.703125 C 35.882812 16.375 36.066406 15.882812 36.066406 15.230469 L 36.066406 14.550781 C 35.898438 14.730469 35.589844 14.847656 35.140625 14.910156 L 34 15.035156 C 33.105469 15.128906 32.660156 15.496094 32.660156 16.140625 C 32.660156 16.460938 32.78125 16.71875 33.019531 16.910156 C 33.257812 17.097656 33.589844 17.195312 34.015625 17.195312 C 34.648438 17.191406 35.144531 17.027344 35.515625 16.703125 Z M 35.515625 16.703125 "/>
<path style=" stroke:none;fill-rule:nonzero;fill:rgb(0%,0%,0%);fill-opacity:1;" d="M 40.238281 18.851562 L 40.238281 6.144531 L 43.019531 6.144531 L 43.019531 18.855469 L 40.238281 18.855469 Z M 40.238281 18.851562 "/>
<path style=" stroke:none;fill-rule:nonzero;fill:rgb(0%,0%,0%);fill-opacity:1;" d="M 44.644531 18.851562 L 44.644531 9.640625 L 47.425781 9.640625 L 47.425781 18.851562 Z M 44.714844 8.589844 L 44.714844 6.230469 L 47.375 6.230469 L 47.375 8.589844 Z M 44.714844 8.589844 "/>
<path style=" stroke:none;fill-rule:nonzero;fill:rgb(0%,0%,0%);fill-opacity:1;" d="M 57.484375 10.730469 C 58.195312 11.597656 58.550781 12.773438 58.550781 14.246094 C 58.550781 15.722656 58.195312 16.894531 57.484375 17.761719 C 56.757812 18.632812 55.777344 19.066406 54.539062 19.066406 C 53.316406 19.066406 52.390625 18.585938 51.757812 17.621094 L 51.757812 18.851562 L 49.046875 18.851562 L 49.046875 6.144531 L 51.832031 6.144531 L 51.832031 10.765625 C 52.460938 9.875 53.363281 9.429688 54.539062 9.429688 C 55.777344 9.425781 56.757812 9.863281 57.484375 10.730469 Z M 55.21875 16.148438 C 55.5625 15.691406 55.734375 15.035156 55.734375 14.175781 C 55.734375 12.496094 55.082031 11.660156 53.773438 11.660156 C 52.453125 11.660156 51.796875 12.519531 51.796875 14.246094 C 51.796875 15.972656 52.453125 16.835938 53.773438 16.835938 C 54.390625 16.835938 54.875 16.605469 55.21875 16.148438 Z M 55.21875 16.148438 "/>
<path style=" stroke:none;fill-rule:nonzero;fill:rgb(0%,0%,0%);fill-opacity:1;" d="M 65.722656 9.535156 L 65.722656 12.070312 L 65.007812 12.070312 C 63.378906 12.070312 62.566406 12.902344 62.566406 14.570312 L 62.566406 18.851562 L 59.78125 18.851562 L 59.78125 9.640625 L 62.492188 9.640625 L 62.492188 11.355469 C 62.921875 10.117188 63.792969 9.496094 65.113281 9.496094 C 65.164062 9.5 65.363281 9.511719 65.722656 9.535156 Z M 65.722656 9.535156 "/>
<path style=" stroke:none;fill-rule:nonzero;fill:rgb(0%,0%,0%);fill-opacity:1;" d="M 72.425781 18.851562 C 72.285156 18.578125 72.207031 18.234375 72.195312 17.816406 C 71.574219 18.652344 70.59375 19.066406 69.25 19.066406 C 68.242188 19.066406 67.429688 18.816406 66.816406 18.316406 C 66.207031 17.816406 65.898438 17.128906 65.898438 16.246094 C 65.898438 14.535156 67.101562 13.574219 69.5 13.371094 L 70.945312 13.246094 C 71.742188 13.164062 72.140625 12.863281 72.140625 12.335938 C 72.140625 11.71875 71.671875 11.410156 70.730469 11.410156 C 70.160156 11.410156 69.757812 11.496094 69.527344 11.667969 C 69.296875 11.839844 69.15625 12.160156 69.109375 12.625 L 66.34375 12.625 C 66.511719 10.492188 67.980469 9.429688 70.75 9.429688 C 73.484375 9.429688 74.851562 10.375 74.851562 12.265625 L 74.851562 17.160156 C 74.851562 17.933594 74.976562 18.496094 75.226562 18.855469 L 72.425781 18.855469 Z M 71.589844 16.703125 C 71.957031 16.375 72.140625 15.882812 72.140625 15.230469 L 72.140625 14.550781 C 71.972656 14.730469 71.664062 14.847656 71.214844 14.910156 L 70.074219 15.035156 C 69.179688 15.128906 68.734375 15.496094 68.734375 16.140625 C 68.734375 16.460938 68.855469 16.71875 69.09375 16.910156 C 69.332031 17.097656 69.664062 17.195312 70.089844 17.195312 C 70.71875 17.191406 71.21875 17.027344 71.589844 16.703125 Z M 71.589844 16.703125 "/>
<path style=" stroke:none;fill-rule:nonzero;fill:rgb(0%,0%,0%);fill-opacity:1;" d="M 93.949219 6.144531 L 93.949219 8.839844 L 90.042969 8.839844 L 90.042969 18.855469 L 87.011719 18.855469 L 87.011719 8.839844 L 83.125 8.839844 L 83.125 6.144531 Z M 93.949219 6.144531 "/>
<path style=" stroke:none;fill-rule:nonzero;fill:url(#linear4);" d="M 78.800781 14.429688 L 82.105469 11.839844 C 82.820312 12.753906 82.660156 14.074219 81.746094 14.789062 C 80.835938 15.503906 79.515625 15.34375 78.800781 14.429688 Z M 78.800781 14.429688 "/>
<path style=" stroke:none;fill-rule:nonzero;fill:url(#linear5);" d="M 80.453125 13.136719 L 77.152344 15.726562 C 76.4375 14.8125 76.597656 13.492188 77.507812 12.777344 C 78.417969 12.0625 79.738281 12.222656 80.453125 13.136719 Z M 80.453125 13.136719 "/>
</g>
</svg>
